# xmcd
#
# Track frame offsets:
#	150
#	18092
#	36182
#	54587
#	71149
#	89440
#	106954
#	124492
#	139652
#	161912
#	181410
#	196815
#
# Disc length: 2878 seconds
#
# Revision: 1
# Processed by: cddbd v1.5.2PL0 Copyright (c) Steve Scherf et al.
# Submitted via: EZCDAudioConverter 6.0.2.1
#
DISCID=a90b3c0c
DTITLE=Vince Gill - Ballads
DYEAR=2013
DGENRE=Country
TTITLE0=I Still Believe in You
TTITLE1=Look at Us
TTITLE2=When Love Finds You
TTITLE3=Someday
TTITLE4=Let's Make Sure We Kiss Goodbye
TTITLE5=If I Didn't Have You in My World
TTITLE6=The Only Love
TTITLE7=What They All Call Love
TTITLE8=Nothing Like a Woman
TTITLE9=Whenever You Come Around
TTITLE10=You and You Alone
TTITLE11=When I Call Your Name
EXTD=
EXTT0=
EXTT1=
EXTT2=
EXTT3=
EXTT4=
EXTT5=
EXTT6=
EXTT7=
EXTT8=
EXTT9=
EXTT10=
EXTT11=
PLAYORDER=
